<?xml version="1.0" encoding="UTF-8"?>
<svg id="_图层_2" data-name="图层 2" xmlns="http://www.w3.org/2000/svg" viewBox="0 0 1466.54 600.78">
  <defs>
    <style>
      .cls-1 {
        fill: #fff;
      }

      .cls-2 {
        fill: #f5555e;
      }

      .cls-3 {
        fill: #ffc000;
      }

      .cls-4 {
        fill: #6690ff;
      }
    </style>
  </defs>
  <g id="_图层_2-2" data-name=" 图层 2">
    <g>
      <path d="m1335.66,235.1c-1.21-5.49-4.67-10.21-9.54-13.02l-25.58-14.76v-.69c0-12.11-6.34-22.71-15.8-28.77,5.39-14,8.16-29.63,9.41-38.58.85-6.13-.05-12.12-2.32-17.44l8.32-14.98c5.01-9.01,2.34-20.35-6.15-26.19l-10.85-7.46c-3.4-2.34-7.36-3.52-11.33-3.52-2.22,0-4.44.38-6.58,1.12-.72-.36-1.46-.68-2.23-.95-2.18-.77-4.44-1.15-6.68-1.15-4.41,0-8.76,1.46-12.33,4.26l-15.48,12.13c-4.09,3.2-6.73,7.86-7.45,12.97-4.83,1.41-9.26,3.97-12.89,7.47h-.93c-.98,0-2.19.04-3.57.13l-505.19,3.58c-4.51-13.88-17.5-23.41-32.24-23.41-2.9,0-5.8.4-8.7,1.1l-34.8,9.2c-1.76.47-3.46,1.08-5.08,1.8-5.29,1.68-15.84,4.93-24.92,7-4.07.88-20.79,4.42-24.61,5.23l-153.8,1.09c-2.07-.23-8.17-.91-10.39-1.32-9.4-1.6-37.4-7.8-37.4-7.8h0c-.13-.03-.27-.07-.4-.1l-35.1-7.9c-2.4-.5-5-.8-7.5-.8-4.14,0-8.12.74-11.82,2.11-3.41,1.16-34.39,11.65-46.38,14.39-3.96.86-14.86,2.24-17.83,2.61l-49.83.35-129.43.54c-9.3,0-18.4,3.9-24.9,10.5-6.5,6.7-10.1,15.8-9.9,25.1l.5,19.5c.6,22.4.5,87.3-6.4,119.8-1.6,4.1-9.3,16.1-18.5,26.2-6.3,6.9-9.5,15.9-9,25.2.4,9.3,4.4,17.8,11.2,24.1l13.7,12.7,14,13c6.5,6,15,9.3,23.8,9.3,9.8,0,19.3-4.2,25.9-11.4,11.1-12.2,37.7-43.9,44.6-76,.8-3.8,1.5-7.7,2.2-11.8,1.5,11.8,3.6,22.2,6.3,31.5,5.5,19.3,13.5,33.5,24.9,44.8,14.83,14.67,34.04,18.93,50.09,20.04v.06s.88,0,.88,0c3.64.23,7.12.3,10.33.3,3.6,0,7.4-.1,11.4-.3.03,0,.06,0,.09,0l948.31-.2h.3c32.6-.3,43.6-3.3,47.3-4.3,23.8-6.5,42.1-21.7,52.8-44.1,6.6-13.9,10.3-30.1,11.8-52.7.31-4.32.51-10.81.61-19.61,1.07.23,2.17.39,3.29.44.32.02.64.02.96.02,6.49,0,12.59-3.15,16.35-8.48l11.33-16.08c3.24-4.59,4.39-10.33,3.18-15.82Z"/>
      <path class="cls-1" d="m112.63,568.78c-5.8,0-11.6-.8-17-2.3s-10.5-3.7-15.2-6.5c-4.7-2.8-9-6.1-12.8-9.9-3.9-3.9-7.3-8.2-10-13-2.7-4.7-4.9-9.8-6.4-15.2-1.5-5.5-2.3-11.2-2.3-17s.8-11.6,2.3-17c1.5-5.3,3.7-10.4,6.4-15.1,2.8-4.7,6.1-9.1,10-13,3.9-3.8,8.2-7.2,12.9-9.9,4.7-2.7,9.8-4.9,15.2-6.4,5.4-1.5,11.2-2.3,17-2.3,7.6,0,15,1.3,22.1,3.9,6.4,2.4,12.4,5.7,17.7,10,5.7,4.5,7.1,12.7,3.4,19l-8.4,13.9c-1,1.6-2.2,3-3.7,4.1h0c8.1,0,14.6,6.6,14.6,14.6v36.3c0,4.4-1.9,8.5-5.3,11.3-5.5,4.5-11.7,8.1-18.4,10.6-7,2.6-14.5,3.9-22.1,3.9h0Zm0-82.5c-2.6,0-4.9.5-7,1.4-2.3,1-4.3,2.4-6.1,4.1-1.7,1.7-3,3.6-4,5.9-1,2.2-1.4,4.5-1.4,7s.5,5,1.4,7.2c1,2.3,2.3,4.3,4.1,6,1.7,1.7,3.7,3,6,4.1,2.2,1,4.5,1.4,7,1.4h1.1v-16.8c0-7.4,5.4-13.5,12.5-14.5-.4-.3-.7-.6-1.1-.9-1.6-1.4-3.4-2.6-5.4-3.4-2.2-1-4.5-1.5-7.1-1.5h0Z"/>
      <path d="m793.03,429.38h-16l-354.71-.54c-1.35-.1-2.71-.16-4.09-.16s-2.65.06-3.97.15l-32.38-.05c-1.05-.06-2.1-.1-3.15-.1s-2.09.04-3.12.09l-261.48-.39-.5,153,645.8-1.9h0s3.9,0,3.9,0c15.1,0,27.5-12.3,27.5-27.5v-12.7c.2-.1.4-.3.6-.4,5.9-4,11.1-8.8,15.3-14.3,4.3-5.5,7.7-11.7,10-18.4,2.4-6.8,3.6-14.1,3.6-21.5v-27.8c.2-15.2-12.2-27.6-27.3-27.5Z"/>
      <g>
        <path d="m112.63,453.88c6.1,0,12,1,17.6,3.1,5.2,1.9,9.9,4.6,14.2,8,.7.6.9,1.6.4,2.4l-8.4,13.9c-.3.6-1,.9-1.6.9-.4,0-.9-.2-1.2-.5-2.6-2.3-5.5-4.2-8.7-5.6-3.9-1.7-8-2.6-12.3-2.6s-8.4.8-12.2,2.5c-3.8,1.7-7.1,3.9-10,6.7-2.9,2.8-5.1,6.1-6.8,9.9-1.7,3.8-2.5,7.8-2.5,12.2s.8,8.5,2.5,12.3c1.7,3.8,3.9,7.1,6.8,10,2.9,2.9,6.2,5.1,10,6.8,3.8,1.7,7.8,2.5,12.2,2.5,2.5,0,4.9-.3,7.2-.9,2-.5,3.8-1.2,5.6-2,.6-.3,1-1,1-1.7v-25.1c0-1,.8-1.8,1.8-1.8h15.4c1,0,1.8.8,1.8,1.8v36.3c0,.5-.2,1.1-.7,1.4-4.4,3.6-9.3,6.4-14.7,8.4-5.6,2.1-11.5,3.1-17.6,3.1-4.7,0-9.2-.6-13.5-1.8-4.3-1.2-8.4-2.9-12.2-5.2-3.8-2.2-7.2-4.9-10.3-8-3.1-3.1-5.8-6.5-8-10.3-2.2-3.8-3.9-7.9-5.1-12.2-1.2-4.3-1.8-8.9-1.8-13.6s.6-9.2,1.8-13.5c1.2-4.3,2.9-8.4,5.1-12.2,2.2-3.8,4.9-7.2,8-10.3,3.1-3.1,6.6-5.8,10.3-8,3.8-2.2,7.8-3.9,12.2-5.1,4.5-1.2,9-1.8,13.7-1.8m0-25.6c-7,0-13.9.9-20.5,2.8-6.4,1.8-12.6,4.4-18.2,7.7-5.6,3.3-10.8,7.3-15.4,11.9-4.7,4.7-8.8,9.9-12.1,15.6-3.3,5.6-5.9,11.7-7.7,18.1-1.8,6.6-2.8,13.4-2.8,20.5s.9,13.9,2.8,20.5c1.8,6.4,4.4,12.6,7.7,18.2,3.3,5.7,7.4,11,12.1,15.6,4.6,4.6,9.8,8.6,15.3,11.9,5.7,3.4,11.8,6,18.3,7.8,6.6,1.8,13.5,2.8,20.5,2.8,9.1,0,18.1-1.6,26.5-4.7,8-3,15.5-7.2,22.1-12.7,6.4-5.2,10-13,10-21.2v-36.3c0-7.7-3.2-14.7-8.3-19.7l3.9-6.4c7-11.7,4.3-27-6.4-35.6-6.4-5.1-13.5-9.2-21.3-12-8.4-3.2-17.3-4.8-26.5-4.8h0Z"/>
        <path class="cls-1" d="m145.63,542.98c0,.5-.2,1.1-.7,1.4-4.4,3.6-9.3,6.4-14.7,8.4-5.6,2.1-11.5,3.1-17.6,3.1-4.7,0-9.2-.6-13.5-1.8-4.3-1.2-8.4-2.9-12.2-5.2-3.8-2.2-7.2-4.9-10.3-8-3.1-3.1-5.8-6.5-8-10.3-2.2-3.8-3.9-7.9-5.1-12.2-1.2-4.4-1.8-8.9-1.8-13.6s.6-9.2,1.8-13.5c1.2-4.3,2.9-8.4,5.1-12.2,2.2-3.8,4.9-7.2,8-10.3s6.6-5.8,10.3-8c3.8-2.2,7.8-3.9,12.2-5.1,4.3-1.2,8.9-1.8,13.5-1.8,6.1,0,12,1,17.6,3.1,5.2,1.9,9.9,4.6,14.2,8,.7.6.9,1.6.4,2.4l-8.4,13.9c-.6,1-1.9,1.2-2.8.4-2.6-2.3-5.5-4.2-8.7-5.6-3.9-1.7-8-2.6-12.3-2.6s-8.4.8-12.2,2.5c-3.8,1.7-7.1,3.9-10,6.7s-5.1,6.1-6.8,9.9c-1.7,3.8-2.5,7.8-2.5,12.2s.8,8.5,2.5,12.3c1.7,3.8,3.9,7.1,6.8,10,2.9,2.9,6.2,5.1,10,6.8,3.8,1.7,7.8,2.5,12.2,2.5,2.5,0,4.9-.3,7.2-.9,2-.5,3.8-1.2,5.6-2,.6-.3,1-1,1-1.7v-25.1c0-1,.8-1.8,1.8-1.8h15.4c1,0,1.8.8,1.8,1.8l.2,36.3h0Z"/>
      </g>
      <path class="cls-1" d="m226.83,553.78h-64.1c-1,0-1.8-.8-1.8-1.8v-95.2c0-1,.8-1.8,1.8-1.8h64.1c1,0,1.8.8,1.8,1.8v16.1c0,1-.8,1.8-1.8,1.8h-44.3c-1,0-1.8.8-1.8,1.8v16.1c0,1,.8,1.8,1.8,1.8h28.8c1,0,1.8.8,1.8,1.8v16.1c0,1-.8,1.8-1.8,1.8h-28.8c-1,0-1.8.8-1.8,1.8v16c0,1,.8,1.8,1.8,1.8h44.3c1,0,1.8.8,1.8,1.8v16.1c0,1.4-.8,2.2-1.8,2.2Z"/>
      <path class="cls-1" d="m446.13,554.48h-16c-1,0-1.8-.8-1.8-1.8v-68.7c0-1.4-.3-2.7-.8-3.9s-1.2-2.2-2.1-3.1c-.9-.9-1.9-1.6-3.1-2.1s-2.5-.8-3.9-.8-2.7.3-3.9.8-2.2,1.2-3.1,2.1c-.9.9-1.6,1.9-2.1,3.1-.5,1.2-.8,2.5-.8,3.9v68.7c0,1-.8,1.8-1.8,1.8h-16.1c-1,0-1.8-.8-1.8-1.8v-68.7c0-1.4-.3-2.7-.8-3.9s-1.2-2.2-2.1-3.1c-.9-.9-1.9-1.6-3.1-2.1s-2.5-.8-3.9-.8-2.7.3-3.9.8c-1.2.5-2.2,1.2-3.1,2.1-.9.9-1.6,1.9-2.1,3.1-.5,1.2-.8,2.5-.8,3.9v68.7c0,1-.8,1.8-1.8,1.8h-16.1c-1,0-1.8-.8-1.8-1.8v-68.7c0-4.1.8-7.9,2.3-11.5s3.7-6.8,6.3-9.4c2.7-2.7,5.8-4.8,9.4-6.3s7.5-2.3,11.5-2.3c3.7,0,7.2.7,10.6,2,2.9,1.1,5.6,2.7,8,4.7.7.5,1.6.5,2.3,0,2.4-2,5.1-3.6,8-4.7,3.4-1.3,6.9-2,10.6-2,4.1,0,7.9.8,11.5,2.3s6.8,3.7,9.4,6.3c2.7,2.7,4.8,5.8,6.3,9.4,1.5,3.6,2.3,7.5,2.3,11.5v68.7c.1,1-.8,1.8-1.7,1.8h0Z"/>
      <path class="cls-1" d="m531.53,553.78h-64.1c-1,0-1.8-.8-1.8-1.8v-95.2c0-1,.8-1.8,1.8-1.8h64.1c1,0,1.8.8,1.8,1.8v16.1c0,1-.8,1.8-1.8,1.8h-44.3c-1,0-1.8.8-1.8,1.8v16.1c0,1,.8,1.8,1.8,1.8h28.8c1,0,1.8.8,1.8,1.8v16.1c0,1-.8,1.8-1.8,1.8h-28.8c-1,0-1.8.8-1.8,1.8v16c0,1,.8,1.8,1.8,1.8h44.3c1,0,1.8.8,1.8,1.8v16.1c0,1.4-.8,2.2-1.8,2.2Z"/>
      <path class="cls-1" d="m586.83,553.78h-16c-1,0-1.8-.8-1.8-1.8v-75.4c0-1-.8-1.8-1.8-1.8h-26c-1,0-1.8-.8-1.8-1.8v-16.1c0-1,.8-1.8,1.8-1.8h75.4c1,0,1.8.8,1.8,1.8v16.1c0,1-.8,1.8-1.8,1.8h-26c-1,0-1.8.8-1.8,1.8v75.4c-.2,1-1,1.8-2,1.8h0Z"/>
      <path class="cls-1" d="m646.73,553.78h-16.1c-1,0-1.8-.8-1.8-1.8v-95.2c0-1,.8-1.8,1.8-1.8h37.7c3.6,0,7.1.5,10.5,1.4s6.5,2.3,9.4,4c2.9,1.7,5.6,3.8,8,6.2,2.4,2.4,4.5,5.1,6.2,8,1.7,2.9,3.1,6.1,4,9.4.9,3.4,1.4,6.8,1.4,10.5,0,3.4-.4,6.7-1.3,9.9s-2.1,6.3-3.7,9.2c-1.6,2.9-3.5,5.6-5.8,8-1.9,2.1-4.1,3.9-6.4,5.5-.7.5-1,1.4-.7,2.2l9.3,21.9c.5,1.2-.4,2.5-1.7,2.5h-17.1c-.7,0-1.4-.4-1.7-1.1l-7.7-17.7c-.3-.7-1-1.1-1.7-1.1l-19.1.1c-1,0-1.8.8-1.8,1.8v16.1c.1,1.2-.7,2-1.7,2h0Zm1.8-77.2v35.9c0,1,.8,1.8,1.8,1.8h17.9c2.7,0,5.3-.5,7.7-1.5,2.4-1,4.5-2.4,6.3-4.2,1.8-1.8,3.2-3.9,4.2-6.3,1-2.4,1.5-5,1.5-7.7s-.5-5.3-1.5-7.7-2.4-4.5-4.2-6.3c-1.8-1.8-3.9-3.2-6.3-4.2s-4.9-1.5-7.7-1.5h-17.9c-.9-.1-1.8.7-1.8,1.7h0Z"/>
      <path class="cls-1" d="m763.43,553.78h-16c-1,0-1.8-.8-1.8-1.8v-27.7c0-.8-.6-1.5-1.3-1.8-3.8-1.1-7.4-2.8-10.7-4.9-3.7-2.4-6.8-5.3-9.4-8.7-2.6-3.4-4.6-7.1-6.1-11.2-1.4-4.1-2.2-8.4-2.2-13v-27.8c0-1,.8-1.8,1.8-1.8h16.1c1,0,1.8.8,1.8,1.8v27.8c0,2.7.5,5.3,1.5,7.7s2.4,4.5,4.2,6.3c1.8,1.8,3.9,3.2,6.3,4.2s5,1.5,7.7,1.5,5.3-.5,7.7-1.5c2.4-1,4.5-2.4,6.3-4.2s3.2-3.9,4.2-6.3c1-2.4,1.5-5,1.5-7.7v-27.8c0-1,.8-1.8,1.8-1.8h16c1,0,1.8.8,1.8,1.8v27.8c0,4.5-.7,8.9-2.2,13-1.4,4.1-3.5,7.9-6.1,11.2-2.6,3.4-5.7,6.3-9.4,8.7-3.2,2.2-6.8,3.8-10.6,4.9-.8.2-1.3.9-1.3,1.8v27.7c.2,1-.6,1.8-1.6,1.8h0Z"/>
      <path class="cls-1" d="m531.53,553.88h-64.1c-1,0-1.8-.8-1.8-1.8v-95.2c0-1,.8-1.8,1.8-1.8h64.1c1,0,1.8.8,1.8,1.8v16.1c0,1-.8,1.8-1.8,1.8h-44.3c-1,0-1.8.8-1.8,1.8v16.1c0,1,.8,1.8,1.8,1.8h28.8c1,0,1.8.8,1.8,1.8v16.1c0,1-.8,1.8-1.8,1.8h-28.8c-1,0-1.8.8-1.8,1.8v16c0,1,.8,1.8,1.8,1.8h44.3c1,0,1.8.8,1.8,1.8v16.1c0,1.4-.8,2.2-1.8,2.2Z"/>
      <g>
        <g>
          <circle class="cls-4" cx="288.23" cy="506.48" r="81.8"/>
          <path d="m288.33,437.18c38.3,0,69.3,31,69.3,69.3s-31,69.3-69.3,69.3-69.3-31-69.3-69.3c-.1-38.3,31-69.3,69.3-69.3m0-25c-52,0-94.3,42.3-94.3,94.3s42.3,94.3,94.3,94.3,94.3-42.3,94.3-94.3-42.3-94.3-94.3-94.3h0Z"/>
        </g>
        <path d="m300.53,469.48h-25c-5.7,0-11,3-13.8,8l-12.5,21.6c-2.9,4.9-2.9,11,0,16l12.5,21.6c2.9,4.9,8.1,8,13.8,8h25c5.7,0,11-3,13.8-8l12.5-21.6c2.9-4.9,2.9-11,0-16l-12.5-21.6c-2.8-5-8.1-8-13.8-8Z"/>
      </g>
      <path d="m1461.31,71.64c-3.6-9.54-8.96-18.29-15.92-25.99-7.23-7.99-16-14.35-26.08-18.91l-52.83-23.89c-4.17-1.89-8.6-2.84-13.18-2.84h0c-12.54,0-23.99,7.39-29.16,18.82l-12.21,26.99c-5.06,11.19-3.13,23.8,3.94,32.88-.35.13-.7.25-1.04.39-9.57,3.61-18.34,9-26.07,16.02-7.95,7.22-14.27,15.95-18.82,25.96-8.28,2.77-15.2,9.08-18.5,17.65l-15.42,40.01c-6.35,16.46,1.88,35.02,18.35,41.37l47.9,18.47c3.53,1.36,7.18,2.01,10.78,2.01s7.18-.67,10.54-1.92c1.58.78,3.22,1.42,4.91,1.91l50.68,14.63c.07.02.14.04.2.06,2.82.79,5.73,1.19,8.66,1.19,14.27,0,26.94-9.6,30.81-23.34l8.01-28.52c3.22-11.45-.26-23.23-8.07-31.15,7.9-3.52,15.22-8.28,21.77-14.24,7.98-7.25,14.33-16.03,18.88-26.09,4.56-10.08,6.95-20.65,7.09-31.42.14-10.39-1.61-20.5-5.21-30.04Z"/>
      <g>
        <path class="cls-3" d="m1282.83,146.95l-15.42,40.01c-.4,1.03.12,2.19,1.15,2.59l47.9,18.47-17.29-16.43,4.8-19.83-18.53,1.61-2.61-26.41Z"/>
        <path class="cls-3" d="m1325.15,159.9c-.21-.5,6.1-15.05,6.1-15.05.97-2.14,2.26-3.95,3.88-5.45,1.62-1.5,3.44-2.62,5.45-3.38,2.02-.76,4.12-1.11,6.33-1.06,2.2.05,4.37.56,6.51,1.53l15.37,6.95c6.33,2.86,12.82,4.34,19.47,4.43,6.65.09,12.99-1,19.04-3.29,6.05-2.28,11.54-5.67,16.49-10.16,4.94-4.49,8.85-9.9,11.72-16.24s4.34-12.82,4.43-19.47c.09-6.65-1.01-12.99-3.29-19.04s-5.65-11.53-10.11-16.46c-4.46-4.93-9.85-8.83-16.19-11.69l-52.83-23.89c-1.01-.46-2.19,0-2.65,1l-12.21,26.99c-.46,1.01,0,2.19,1,2.65l52.83,23.89c2.13.97,3.95,2.26,5.45,3.88,1.5,1.62,2.62,3.44,3.39,5.45.76,2.02,1.11,4.12,1.06,6.33-.05,2.2-.56,4.37-1.53,6.51s-2.27,3.97-3.9,5.5c-1.64,1.53-3.46,2.68-5.48,3.44-2.02.76-4.13,1.11-6.33,1.06-2.21-.05-4.37-.56-6.51-1.53l-15.37-6.95c-6.33-2.86-12.82-4.36-19.44-4.48-6.63-.13-12.97.95-19.01,3.23-6.05,2.28-11.54,5.67-16.49,10.16-4.95,4.49-8.85,9.91-11.72,16.24l-2.26,5.01-2.26,25.94,29.06-2.04Z"/>
        <path class="cls-3" d="m1327.37,171.04l-10.37,1.5.36,23.24,22.85,13.41,50.68,14.63c1.06.3,2.17-.32,2.47-1.38l8.01-28.52c.3-1.06-.32-2.17-1.38-2.47l-72.62-20.41Z"/>
      </g>
      <g>
        <path class="cls-1" d="m761.43,193.04h-43.7c-1.6,0-2.5-1.7-1.7-3.1l6.7-10.6c.4-.6,1-.9,1.7-.9h27c1.1,0,2-.9,2-2v-26c0-1.1-.9-2-2-2h-76.3c-.9,0-1.7-.6-1.9-1.5l-6.5-24.7-2.4-1.4-34.8,9.2c-1.1.3-1.7,1.4-1.4,2.4l3.6,13.5c.3,1.3-.6,2.5-1.9,2.5h-77.8c-1.1,0-2,.9-2,2v26c0,1.1.9,2,2,2h29.9c.7,0,1.4.4,1.7,1l6.3,10.6c.8,1.3-.2,3-1.7,3h-45.2c-1.1,0-2,.9-2,2v26c0,1.1.9,2,2,2h218.4c1.1,0,2-.9,2-2v-26c0-1.1-.9-2-2-2Zm-87.3-11.5l-6.7,10.6c-.4.6-1,.9-1.7.9h-26.5c-.7,0-1.4-.4-1.7-1l-6.3-10.6c-.8-1.3.2-3,1.7-3h39.5c1.5,0,2.5,1.7,1.7,3.1Z"/>
        <path class="cls-1" d="m702.13,318.24c-.4-2.4-.5-5.7-.3-9.5.1-1.7,1.5-3,3.2-3h0c12.7,0,24.4-7,30-18.3,13.4-27.2-6.1-54.2-31.9-54.2h-100.6c-20,0-36.8,15.8-37.1,35.8-.2,16,10,29.7,24.2,34.7,2.3.8,2.9,3.8,1,5.4h0c-10.2,8.4-31.6,12.7-44.7,13.8-1.7.1-3,1.6-2.9,3.3l1.4,33.6c.1,1.8,1.6,3.2,3.4,3,11.4-.8,46.4-4.9,68.2-22.9,11.5-9.5,18-21.2,21.5-32,.4-1.3,1.6-2.2,3-2.2h18.1c1.8,0,3.2,1.5,3.2,3.3-.5,17.4,3.6,30.7,12.4,39.6,9.6,9.8,26.1,14.2,53.2,14.2h2.3c12.9-.1,24.7-1.2,30.2-1.8,1.8-.2,3-1.8,2.8-3.6l-4.2-33.4c-.2-1.7-1.8-3-3.5-2.8-20.1,2.2-41.9,1.9-50.7-.5-1.1-.3-1.9-1.3-2.2-2.5Zm-100.4-54.1h102.6c1,0,1.9.4,2.5,1.2,3.6,4.4.5,9.4-3.7,9.4h-102.6c-1,0-1.9-.4-2.5-1.2-3.6-4.5-.6-9.4,3.7-9.4Z"/>
        <path class="cls-1" d="m855.53,279.04l14.2-1.9c1.1-.1,1.9-1.1,1.7-2.2l-4.7-35.7c-.1-1.1-1.1-1.9-2.2-1.7l-9.2,1.2c-1.2.2-2.2-.8-2.3-1.9l-.3-18c0-1.1.9-2,2-2h12.9c1.1,0,2-.9,2-2v-36c0-1.1-.9-2-2-2h-13.6c-1.1,0-2-.9-2-2l-.6-33.1c0-1.1-.9-2-2-2l-36,.6c-1.1,0-2,.9-2,2l.5,32.4c0,1.1-.9,2-2,2h-16.3c-1.1,0-2,.9-2,2v36c0,1.1.9,2,2,2h17c1.1,0,2,.9,2,2l.4,23.8c0,1-.7,1.9-1.7,2l-19.6,2.6c-1.1.1-1.9,1.1-1.7,2.2l4.7,35.7c.1,1.1,1.1,1.9,2.2,1.7l14.6-1.9c1.2-.2,2.2.8,2.3,1.9l.4,24.1.1,1.2c.1,1.3.1,2.8.1,4.2,0,1-.7,1.8-1.7,2-5.6.9-13.6,1.7-21,1.9-1.1,0-2,.9-1.9,2l.7,36c0,1.1.9,2,2.1,2,3.3-.1,10.2-.4,17.7-1.2,18.4-2,28.6-5.6,35.1-12.3,8.9-9.2,9.8-25.1,8.9-37l-.5-28.5c-.1-1.1.7-1.9,1.7-2.1Z"/>
        <path class="cls-1" d="m217.53,324.24c-.5-.1-.9-.4-1.2-.8-3.5-6.2-10.6-25.3-10.5-79,.1-37.6,3.8-72.3,3.8-72.7l2.3-21.2c.1-1-.7-1.8-1.6-1.8l-143.5.6c-.9,0-1.6.7-1.6,1.6l.5,19.5c0,.8,2.1,85.2-7.2,128.2-2.4,11-16.3,29.9-26.2,40.8-.8.8-.7,2.1.1,2.9l13.7,12.7,14,13c.7.6,1.7.6,2.3-.1,6.2-6.8,31.2-35.4,36.7-60.7,7.2-33.3,8.3-85.4,8.4-115.2,0-.9.7-1.6,1.6-1.6l55.3-.2c.9,0,1.7.8,1.6,1.7-1,13.9-1.9,32.4-1.9,51.9-.2,77.8,13.9,100.8,24.6,111.3,8.7,8.6,22.9,11.7,47.5,10.5,11.1-.6,21.4-1.9,25.2-2.5.9-.1,1.5-1,1.4-1.8l-5.9-37.7c-.1-.9-1-1.5-1.8-1.3-14.2,2.2-30.3,2.9-37.6,1.9Z"/>
        <path class="cls-1" d="m322.53,128.24c-1.1-.2-2.1.4-2.4,1.5-5.3,23.2-15.9,62.3-23.3,74.8-10,16.9-34.1,38.9-44.3,47.5-.8.7-.9,1.9-.3,2.8l22.8,27.8c.7.9,2,1,2.8.3,3.4-2.9,11.7-10,21.2-19.4,1.3-1.2,3.4-.3,3.4,1.4v91.6c0,1.1.9,2,2,2h36c1.1,0,2-.9,2-2v-157.8c0-.2,0-.4.1-.6,8-23.3,14.6-51.1,16.5-59.5.2-1.1-.4-2.1-1.5-2.4l-35-8Z"/>
        <path class="cls-1" d="m369.93,187.84h91.6c1.1,0,2,.9,2,2,.8,38.1,1.8,96.3,1.2,107.3-.5,8.8-2,14.4-4.7,17.5-1.5,1.7-2.6,2.9-10.9,3.6h-.1c-3.8.1-25.5-.1-45.5-.3-1.1,0-2,.9-2,2l-.4,36c0,1.1.9,2,2,2,20.7.2,32.5.3,39.4.3,8,0,9.2-.1,9.8-.1,17.3-1.5,28.2-6.3,37.6-16.7,12.2-13.5,14.4-30.5,15-42.2.7-13.2-.4-74.6-1.2-109.3,0-1.1.9-2,2-2h12.7c1.1,0,2-.9,2-2v-36c0-1.1-.9-2-2-2h-148.3c-1.1,0-2,.9-2,2v36c-.2,1,.7,1.9,1.8,1.9Z"/>
        <path class="cls-1" d="m923.13,217.24h36c1.1,0,2-.9,2-2v-13.2c0-1.1.9-2,2-2h47.6c1.1,0,2-.9,2-2v-36c0-1.1-.9-2-2-2h-47.6c-1.1,0-2-.9-2-2v-17.4c0-1.1-.9-2-2-2h-36c-1.1,0-2,.9-2,2v17.4c0,1.1-.9,2-2,2h-41.8c-1.1,0-2,.9-2,2v36c0,1.1.9,2,2,2h41.8c1.1,0,2,.9,2,2v13.2c0,1.1.9,2,2,2Z"/>
        <path class="cls-1" d="m1006.53,235.84l-35-8.6c-1-.3-2.1.3-2.4,1.4-1.9,6.3-9.3,27.9-25.5,46.2-.8.9-2.2.9-3,0-16.2-18.4-23.6-40-25.5-46.3-.3-1-1.4-1.6-2.4-1.4l-17.5,4.4-17.4,4.3c-1.1.3-1.8,1.4-1.4,2.5,2.2,7.6,10.9,35,31.8,60,.8,1,.5,2.5-.6,3.1-19.3,9.9-38.1,15.8-44,17.5-1,.3-1.6,1.4-1.4,2.4l9.1,34.8c.3,1.1,1.4,1.7,2.5,1.4,8.1-2.3,39.1-11.7,67.3-29.2.6-.4,1.5-.4,2.1,0,28.2,17.6,59.2,27,67.3,29.2,1.1.3,2.2-.3,2.5-1.4l9.1-34.8c.3-1-.3-2.1-1.4-2.4-5.9-1.7-24.7-7.5-44-17.5-1.1-.6-1.4-2.1-.6-3.1,20.9-25,29.7-52.4,31.8-60,.4-1.1-.3-2.2-1.4-2.5Z"/>
        <path class="cls-1" d="m1098.13,292.54v-56.9c0-1.1.9-2,2-2h14.5c1.1,0,2-.9,2-2v-36c0-1.1-.9-2-2-2h-14.5c-1.1,0-2-.9-2-2v-48.5c0-1.1-.9-2-2-2h-36c-1.1,0-2,.9-2,2v48.5c0,1.1-.9,2-2,2h-15.5c-1.1,0-2,.9-2,2v36c0,1.1.9,2,2,2h15.5c1.1,0,2,.9,2,2v62.7c0,1-.7,1.9-1.7,2l-17.1,2.2c-1.1.1-1.9,1.1-1.7,2.2l4.7,35.7c.1,1.1,1.1,1.9,2.2,1.7l72.7-9.5c1.1-.1,1.9-1.1,1.7-2.2l-4.7-35.7c-.1-1.1-1.1-1.9-2.2-1.7l-11.6,1.5c-1.2.2-2.3-.7-2.3-2Z"/>
      </g>
      <polygon class="cls-3" points="1285.64 221.81 1316.13 239.41 1304.81 255.49 1285.64 221.81"/>
      <g>
        <path class="cls-1" d="m1199.21,140.71h-73.28c-1.1,0-2,.9-2,2v36c0,1.1.9,2,2,2h67.5c1.8,0,2.7,2.1,1.4,3.4-3,3.1-6,6-9,8.3-15.9,12.2-47.7,15.2-62.4,15.5h-1.8c-1.1,0-2,.9-2,2v18l-.4,18c0,1.1.9,2,2,2h12.6c1.2,0,2.2,1.1,2,2.4-.6,3.1-1.1,5.5-1.6,6.8,0,.1-.1.2-.1.3-1.7,2.9-8.6,11.1-15.6,18.3-.8.8-.7,2,.1,2.8l22.2,21.7c.8.8,2.1.8,2.8,0,7.3-7.6,18.6-20.1,22.4-28.3,2.4-5.2,4.1-13.8,5.4-22.2.1-1,1-1.7,2-1.7h5.5c1.2,0,2.2,1.1,2,2.3-2,11.9-4.2,22.3-6,26-3.4,7.1-21.5,27.4-37,42.8-.8.8-.8,2,0,2.8l21.8,22c.8.8,2,.8,2.8,0,8.5-8.5,36.4-37.1,43.8-52.4,4.4-9.2,7.9-27.2,10.1-41.9.1-1,1-1.7,2-1.7h6.8c1.1,0,2,.9,2,2,.1,17.9,0,35.8-.5,43.1-2,29.5-7.8,31.1-11.6,32.1-3.3.8-16.5,1.6-28.9,1.7-1.1,0-2,.9-2,2l.1,36c0,1.1.9,2,2,2,9.9-.1,29.7-.6,39.2-3.1,14.8-4,25.6-13.1,32.3-27,4.8-10,7.5-22.7,8.8-41,.7-9.1.7-29.9.6-48.7v-37.2c0-1.1-.9-2-2-2h-32c-1.9,0-2.7-2.3-1.3-3.5,2.58-2.17,4.83-4.32,6.8-6.55l-19.49-12,2.19-15.35-18.97-8-3.26-21.7Z"/>
        <path class="cls-1" d="m1240.06,190.73c4.91-4.22,8.57-9.03,11.77-15.57,6.05-12.28,9.06-30.95,9.9-36.99.15-1.09-.62-2.11-1.7-2.26l-32.06-4.92-8.7,23.43,15.54,2.56-5.99,15.84,11.25,17.92Z"/>
      </g>
      <g>
        <polygon class="cls-3" points="1264.97 126.5 1240.85 100.85 1256.33 88.72 1264.97 126.5"/>
        <polygon class="cls-3" points="1271.71 116.9 1271.82 89.7 1282.68 97.16 1271.71 116.9"/>
      </g>
      <polygon class="cls-1" points="1285.8 221.61 1316.3 239.21 1304.97 255.29 1285.8 221.61"/>
      <g>
        <g>
          <path class="cls-2" d="m955.27,342.1l68.7-119.1c3.8-6.6-1-14.8-8.6-14.8h-137.5c-7.6,0-12.4,8.2-8.6,14.8l68.7,119.1c4,6.6,13.5,6.6,17.3,0Z"/>
          <path d="m1015.47,208.3c7.6,0,12.4,8.2,8.6,14.8l-68.7,119.1c-1.9,3.3-5.2,4.9-8.6,4.9s-6.7-1.6-8.6-4.9l-68.7-119.1c-3.8-6.6,1-14.8,8.6-14.8h137.4m0-20h-137.5c-10.6,0-20.6,5.7-25.9,14.9-5.3,9.2-5.3,20.7,0,29.9l68.7,119.1c5.3,9.2,15.2,14.9,25.9,14.9s20.6-5.7,25.9-14.9l68.7-119.1c5.3-9.2,5.3-20.7,0-29.9-5.3-9.2-15.2-14.9-25.8-14.9h0Z"/>
        </g>
        <path d="m951.67,290.3l25.7-44.5c2.2-3.8-.5-8.6-4.9-8.6h-51.4c-4.4,0-7.1,4.8-4.9,8.6l25.7,44.5c2.1,3.8,7.6,3.8,9.8,0Z"/>
      </g>
      <g>
        <g>
          <circle class="cls-4" cx="402.6" cy="255.57" r="66.6"/>
          <path d="m402.6,189.07c36.8,0,66.6,29.8,66.6,66.6s-29.8,66.6-66.6,66.6-66.6-29.8-66.6-66.6,29.8-66.6,66.6-66.6m0-24c-49.9,0-90.6,40.6-90.6,90.6s40.6,90.6,90.6,90.6,90.6-40.6,90.6-90.6-40.7-90.6-90.6-90.6h0Z"/>
        </g>
        <path d="m413.2,221.97h-21.7c-5.5,0-10.5,2.9-13.3,7.7l-10.8,18.8c-2.7,4.7-2.7,10.6,0,15.3l10.8,18.8c2.7,4.7,7.8,7.7,13.3,7.7h21.7c5.5,0,10.5-2.9,13.3-7.7l10.8-18.8c2.7-4.7,2.7-10.6,0-15.3l-10.8-18.8c-2.8-4.7-7.8-7.7-13.3-7.7Z"/>
      </g>
      <g>
        <path d="m1169.72,430.52h-15.9s-.08,0-.12,0h-39.77c-.19,0-.38,0-.57,0h-18.06c-.28,0-.55.01-.83.02h-15.41c-.34,0-.68-.02-1.02-.02h-63.23c-.51,0-1.02.02-1.52.05l-147.43.04c-1.14-.06-2.28-.09-3.43-.09-8.85,0-17.34,1.72-25.2,5.15-7.68,3.34-14.54,7.95-20.32,13.73-5.69,5.78-10.3,12.56-13.64,20.23-3.43,7.86-5.15,16.35-5.15,25.2v56.72c0,14.9,12.19,27.1,27.1,27.1h344.5c14.9,0,27.1-12.19,27.1-27.1v-93.94c0-14.99-12.19-27.1-27.1-27.1Z"/>
        <path class="cls-1" d="m939.85,553.28h-15.9c-.99,0-1.81-.81-1.81-1.81v-93.94c0-.99.81-1.81,1.81-1.81h37.21c3.61,0,7.05.45,10.3,1.35,3.34.9,6.41,2.26,9.3,3.97,2.89,1.72,5.51,3.7,7.86,6.14,2.35,2.35,4.43,5.06,6.14,7.95,1.72,2.89,2.98,5.96,3.97,9.3.9,3.34,1.35,6.77,1.35,10.3s-.45,6.59-1.26,9.76c-.81,3.16-2.08,6.14-3.61,9.03s-3.43,5.51-5.78,7.86c-1.9,2.08-4.06,3.88-6.32,5.42-.72.45-.99,1.45-.63,2.17l9.12,21.59c.54,1.17-.36,2.53-1.63,2.53h-16.8c-.72,0-1.35-.45-1.63-1.08l-7.59-17.43c-.27-.63-.99-1.08-1.63-1.08l-18.88.09c-.99,0-1.81.81-1.81,1.81v15.9c0,1.17-.81,1.99-1.81,1.99h0Zm1.81-76.14v35.41c0,.99.81,1.81,1.81,1.81h17.7c2.71,0,5.24-.54,7.59-1.54,2.35-.99,4.43-2.44,6.14-4.16s3.16-3.79,4.15-6.23c.99-2.35,1.54-4.88,1.54-7.59s-.54-5.24-1.54-7.59c-.99-2.35-2.44-4.43-4.15-6.23-1.72-1.81-3.79-3.16-6.14-4.16-2.35-.99-4.88-1.54-7.59-1.54h-17.7c-.99,0-1.81.81-1.81,1.81h0Z"/>
        <path class="cls-1" d="m1169.72,553.28h-18.06c-.63,0-1.26-.36-1.54-.9l-33.69-57.54c-.9-1.63-3.34-.9-3.34.9v55.73c0,.99-.81,1.81-1.81,1.81h-15.99c-.99,0-1.81-.81-1.81-1.81v-93.94c0-.99.81-1.81,1.81-1.81h18.06c.63,0,1.26.36,1.54.9l33.69,57.63c.9,1.63,3.34.9,3.34-.9v-55.73c0-.99.81-1.81,1.81-1.81h15.9c.99,0,1.81.81,1.81,1.81v93.94c.09.9-.72,1.72-1.72,1.72Z"/>
        <path class="cls-1" d="m899.65,553.28h-15.9c-.99,0-1.81-.81-1.81-1.81v-15.9c0-.99-.81-1.81-1.81-1.81h-35.41c-.99,0-1.81.81-1.81,1.81v15.9c0,.99-.81,1.81-1.81,1.81h-15.9c-.99,0-1.81-.81-1.81-1.81v-56.72c0-5.42.99-10.48,3.07-15.17,2.08-4.7,4.79-8.85,8.31-12.37,3.52-3.52,7.68-6.32,12.37-8.4,4.7-2.08,9.76-3.07,15.17-3.07s10.48.99,15.17,3.07c4.7,2.08,8.85,4.88,12.37,8.4,3.52,3.52,6.32,7.68,8.4,12.37,2.08,4.7,3.07,9.85,3.07,15.17v56.72c.09.99-.72,1.81-1.72,1.81h0Zm-19.51-38.93c.99,0,1.81-.81,1.81-1.81v-17.7c0-2.71-.54-5.24-1.54-7.59-.99-2.35-2.44-4.43-4.15-6.23s-3.79-3.16-6.23-4.16c-2.35-.99-4.88-1.54-7.59-1.54s-5.24.54-7.59,1.54c-2.35.99-4.43,2.44-6.23,4.16-1.81,1.72-3.16,3.79-4.15,6.23-.99,2.35-1.54,4.88-1.54,7.59v17.7c0,.99.81,1.81,1.81,1.81h35.41Z"/>
        <g>
          <g>
            <path class="cls-2" d="m1173.7,570.44c-7.14,0-13.55-3.7-17.07-9.85-3.52-6.14-3.52-13.55,0-19.78l54.19-93.85c3.52-6.14,9.94-9.85,17.07-9.85s13.55,3.7,17.07,9.85l54.19,93.85c3.52,6.14,3.52,13.55,0,19.78-3.61,6.23-9.94,9.85-17.07,9.85h-108.39Z"/>
            <path d="m1227.89,447.87c2.98,0,6.05,1.54,7.77,4.43l54.19,93.85c3.43,5.96-.81,13.37-7.77,13.37h-108.39c-6.86,0-11.11-7.41-7.68-13.37l54.19-93.85c1.72-2.89,4.7-4.43,7.68-4.43m.09-21.68c-10.93,0-21.05,5.87-26.47,15.26l-54.19,93.85c-5.42,9.39-5.42,21.14,0,30.62,5.42,9.39,15.63,15.26,26.47,15.26h108.39c10.93,0,21.05-5.87,26.47-15.26s5.42-21.14,0-30.62l-54.19-93.85c-5.42-9.39-15.63-15.26-26.47-15.26h0Z"/>
          </g>
          <path d="m1223.38,487.52l-25.47,44.08c-1.99,3.43.54,7.77,4.52,7.77h50.85c3.97,0,6.5-4.34,4.52-7.77l-25.47-44.08c-1.99-3.43-6.96-3.43-8.94,0h0Z"/>
        </g>
        <path class="cls-1" d="m1077.91,553.2h-63.03c-1,0-1.8-.8-1.8-1.8v-93.54c0-1,.8-1.8,1.8-1.8h63.03c1,0,1.8.8,1.8,1.8v15.86c0,1-.8,1.8-1.8,1.8h-43.58c-1,0-1.8.8-1.8,1.8v15.86c0,1,.8,1.8,1.8,1.8h28.32c1,0,1.8.8,1.8,1.8v15.86c0,1-.8,1.8-1.8,1.8h-28.32c-1,0-1.8.8-1.8,1.8v15.76c0,1,.8,1.8,1.8,1.8h43.58c1,0,1.8.8,1.8,1.8v15.86c0,1-.8,1.79-1.8,1.79Z"/>
      </g>
    </g>
  </g>
</svg>