<?xml version="1.0" encoding="UTF-8"?>
<svg id="_图层_2" data-name="图层 2" xmlns="http://www.w3.org/2000/svg" viewBox="0 0 974.56 454.74">
  <defs>
    <style>
      .cls-1 {
        fill: #fff;
      }

      .cls-2 {
        fill: #f5555e;
      }

      .cls-3 {
        fill: #ffc000;
      }

      .cls-4 {
        fill: #6690ff;
      }
    </style>
  </defs>
  <g id="_图层_2-2" data-name=" 图层 2">
    <g>
      <g>
        <path d="m827.14,120.57c-2.45-.28-4.85-1.17-6.96-2.67l-28.7-20.39c-3.44-2.44-5.69-6.21-6.2-10.39-.52-4.18.75-8.39,3.49-11.59l12.79-14.94c3.25-3.8,8.17-5.72,13.12-5.15.14.02.27.03.41.05,5.08.73,9.44,4.01,11.55,8.69l15.92,35.33c2.78,6.17,1.08,13.45-4.15,17.75-3.23,2.65-7.31,3.77-11.25,3.32Z"/>
        <polygon class="cls-3" points="828.87 105.67 800.16 85.28 812.95 70.34 828.87 105.67"/>
        <path d="m831.86,109.83c-6.44-.74-11.72-5.57-12.99-12l-5.26-26.69c-1.07-5.46.96-11.06,5.28-14.56,3.18-2.57,7.22-3.7,11.16-3.24,1.42.16,2.82.53,4.17,1.11l12.11,5.18c7.11,3.04,10.74,10.98,8.4,18.35l-6.85,21.51c-2.08,6.52-8.31,10.81-15.15,10.42-.29-.02-.58-.04-.87-.08Z"/>
        <polygon class="cls-3" points="833.59 94.93 828.33 68.24 840.44 73.42 833.59 94.93"/>
      </g>
      <path d="m854.13,194.88c-.24-.03-.48-.06-.72-.1-5.06-.86-9.33-4.26-11.31-8.99l-14.97-35.74c-2.62-6.25-.72-13.47,4.62-17.63,3.21-2.5,7.19-3.52,11.03-3.06,2.55.31,5.04,1.27,7.2,2.9l28.15,21.14c3.37,2.53,5.52,6.36,5.92,10.55.4,4.19-.97,8.36-3.8,11.49l-13.18,14.6c-3.28,3.63-8.11,5.43-12.94,4.84Z"/>
      <path d="m970.96,49.37c-2.48-6.58-6.17-12.61-10.97-17.92-4.98-5.51-11.03-9.89-17.98-13.03l-36.42-16.47c-2.87-1.3-5.93-1.96-9.08-1.96h0c-8.65,0-16.54,5.09-20.1,12.97l-8.41,18.6c-3.49,7.71-2.15,16.4,2.72,22.66-.24.09-.48.18-.72.27-6.59,2.49-12.64,6.2-17.97,11.04-5.48,4.98-9.84,10.99-12.97,17.89-5.71,1.91-10.47,6.26-12.75,12.17l-10.63,27.58c-4.37,11.35,1.3,24.14,12.65,28.51l33.01,12.73c2.43.94,4.95,1.39,7.43,1.39s4.95-.46,7.26-1.32c1.09.53,2.22.98,3.38,1.32l34.93,10.09s.09.03.14.04c1.94.55,3.95.82,5.97.82,9.84,0,18.57-6.62,21.23-16.09l5.52-19.66c2.22-7.89-.18-16.01-5.56-21.47,5.45-2.42,10.49-5.71,15.01-9.81,5.5-5,9.88-11.05,13.01-17.98,3.14-6.95,4.79-14.23,4.89-21.65.1-7.16-1.11-14.13-3.59-20.7Z"/>
      <path d="m827,94.42h-17.5l-388.36-.59c-1.18-.07-2.35-.11-3.54-.11-1.12,0-2.23.04-3.35.1l-37.95-.06c-.64-.02-1.27-.04-1.91-.04-.5,0-1.01.02-1.51.04l-287.59-.44v.03c-.53,0-1.07-.03-1.6-.03-7.7,0-15.2,1-22.3,3-7,2-13.7,4.8-19.9,8.4-6.1,3.6-11.8,8-16.9,13-5.1,5.1-9.6,10.8-13.2,17.1-3.6,6.2-6.4,12.8-8.4,19.8-2,7.2-3,14.7-3,22.4s1,15.2,3,22.4c2,7,4.8,13.7,8.4,19.9,3.6,6.2,8.1,12,13.2,17.1,5,5,10.7,9.4,16.8,13,6.2,3.7,12.9,6.5,20,8.5,7.2,2,14.7,3,22.3,3,2.81,0,5.6-.15,8.36-.42l698.34-1.98v-.1h4.3c16.5,0,30-13.5,30-30v-13.9c.2-.2.5-.3.7-.5,6.4-4.3,12.1-9.6,16.8-15.6,4.7-6.1,8.4-12.8,10.9-20.1,2.6-7.5,4-15.4,4-23.5v-30.4c-.1-16.5-13.5-30-30.1-30Z"/>
      <g>
        <path class="cls-1" d="m208.56,230.87h-70c-1.1,0-2-.9-2-2v-104c0-1.1.9-2,2-2h70c1.1,0,2,.9,2,2v17.6c0,1.1-.9,2-2,2h-48.4c-1.1,0-2,.9-2,2v17.6c0,1.1.9,2,2,2h31.5c1.1,0,2,.9,2,2v17.6c0,1.1-.9,2-2,2h-31.5c-1.1,0-2,.9-2,2v17.5c0,1.1.9,2,2,2h48.4c1.1,0,2,.9,2,2v17.6c0,1.2-.9,2.1-2,2.1Z"/>
        <path class="cls-1" d="m448.16,231.67h-17.5c-1.1,0-2-.9-2-2v-75.1c0-1.5-.3-2.9-.9-4.2-.6-1.3-1.4-2.4-2.3-3.4-1-1-2.1-1.7-3.4-2.3-1.3-.5-2.7-.8-4.2-.8s-2.9.3-4.2.8c-1.3.6-2.5,1.3-3.4,2.3s-1.7,2.1-2.3,3.4c-.6,1.3-.8,2.7-.8,4.2v75.1c0,1.1-.9,2-2,2h-17.6c-1.1,0-2-.9-2-2v-75.1c0-1.5-.3-2.9-.8-4.2-.6-1.3-1.3-2.4-2.3-3.4s-2.1-1.7-3.4-2.3c-1.3-.5-2.7-.8-4.2-.8s-2.9.3-4.2.8c-1.3.6-2.4,1.3-3.4,2.3s-1.7,2.1-2.3,3.4c-.5,1.3-.8,2.7-.8,4.2v75.1c0,1.1-.9,2-2,2h-17.9c-1.1,0-2-.9-2-2v-75.1c0-4.5.8-8.7,2.5-12.6,1.7-3.9,4-7.4,6.9-10.3s6.4-5.2,10.3-6.9c3.9-1.7,8.1-2.5,12.6-2.5,4,0,7.9.7,11.6,2.2,3.2,1.2,6.1,2.9,8.8,5.1.7.6,1.8.6,2.5,0,2.6-2.2,5.5-3.9,8.7-5.1,3.7-1.4,7.5-2.2,11.6-2.2,4.5,0,8.7.8,12.6,2.5,3.9,1.7,7.4,4,10.3,6.9,2.9,2.9,5.2,6.4,6.9,10.3,1.7,3.9,2.5,8.1,2.5,12.6v75.1c.1,1.1-.8,2-1.9,2h0Z"/>
        <path class="cls-1" d="m601.96,230.87h-17.5c-1.1,0-2-.9-2-2v-82.4c0-1.1-.9-2-2-2h-28.5c-1.1,0-2-.9-2-2v-17.6c0-1.1.9-2,2-2h82.4c1.1,0,2,.9,2,2v17.6c0,1.1-.9,2-2,2h-28.4c-1.1,0-2,.9-2,2v82.4c0,1.1-.9,2-2,2h0Z"/>
        <path class="cls-1" d="m667.36,230.87h-17.6c-1.1,0-2-.9-2-2v-104c0-1.1.9-2,2-2h41.2c4,0,7.8.5,11.4,1.5,3.7,1,7.1,2.5,10.3,4.4,3.2,1.9,6.1,4.1,8.7,6.8,2.6,2.6,4.9,5.6,6.8,8.8,1.9,3.2,3.3,6.7,4.4,10.3,1,3.7,1.5,7.5,1.5,11.4s-.5,7.3-1.4,10.8-2.3,6.8-4,10c-1.7,3.2-3.8,6.1-6.4,8.7-2.1,2.3-4.5,4.3-7,6-.8.5-1.1,1.6-.7,2.4l10.1,23.9c.6,1.3-.4,2.8-1.8,2.8h-18.6c-.8,0-1.5-.5-1.8-1.2l-8.4-19.3c-.3-.7-1-1.2-1.8-1.2l-20.9.1c-1.1,0-2,.9-2,2v17.6c0,1.3-.9,2.2-2,2.2h0Zm2-84.4v39.2c0,1.1.9,2,2,2h19.6c3,0,5.8-.6,8.4-1.7,2.6-1.1,4.9-2.7,6.8-4.6,2-2,3.5-4.2,4.6-6.9,1.1-2.6,1.7-5.4,1.7-8.4s-.6-5.8-1.7-8.4c-1.1-2.6-2.7-4.9-4.6-6.9-1.9-2-4.2-3.5-6.8-4.6-2.6-1.1-5.4-1.7-8.4-1.7h-19.6c-1.1.1-2,1-2,2h0Z"/>
        <path class="cls-1" d="m541.56,230.97h-70c-1.1,0-2-.9-2-2v-104c0-1.1.9-2,2-2h70c1.1,0,2,.9,2,2v17.6c0,1.1-.9,2-2,2h-48.4c-1.1,0-2,.9-2,2v17.6c0,1.1.9,2,2,2h31.5c1.1,0,2,.9,2,2v17.6c0,1.1-.9,2-2,2h-31.5c-1.1,0-2,.9-2,2v17.5c0,1.1.9,2,2,2h48.4c1.1,0,2,.9,2,2v17.6c0,1.2-.9,2.1-2,2.1Z"/>
        <path class="cls-1" d="m120.79,218.03c0,.6-.3,1.2-.7,1.5-4.8,4-10.2,7-16.1,9.2-6.2,2.3-12.6,3.4-19.3,3.4-5.1,0-10.1-.7-14.8-2-4.7-1.3-9.2-3.2-13.3-5.7-4.1-2.4-7.9-5.3-11.3-8.7-3.4-3.4-6.3-7.2-8.7-11.3-2.4-4.1-4.3-8.6-5.6-13.4-1.3-4.8-2-9.7-2-14.8s.7-10,2-14.8c1.3-4.7,3.2-9.2,5.6-13.3,2.4-4.1,5.3-7.9,8.7-11.3,3.4-3.4,7.2-6.3,11.3-8.7,4.1-2.4,8.6-4.3,13.3-5.6,4.7-1.3,9.7-2,14.8-2,6.7,0,13.1,1.1,19.3,3.4,5.6,2.1,10.8,5,15.5,8.7.8.6.9,1.7.4,2.6l-9.1,15.2c-.7,1.1-2.1,1.3-3.1.5-2.8-2.5-6-4.6-9.5-6.1-4.3-1.9-8.8-2.8-13.5-2.8s-9.2.9-13.3,2.7c-4.1,1.8-7.8,4.2-10.9,7.3-3.1,3.1-5.6,6.7-7.4,10.8-1.8,4.1-2.7,8.6-2.7,13.3s.9,9.2,2.7,13.4c1.8,4.2,4.3,7.8,7.4,10.9,3.1,3.1,6.7,5.6,10.9,7.4,4.1,1.8,8.6,2.7,13.3,2.7,2.7,0,5.3-.3,7.9-1,2.1-.5,4.2-1.3,6.2-2.2.7-.3,1.1-1,1.1-1.8v-27.4c0-1.1.9-2,2-2h16.9c1.1,0,2,.9,2,2v39.9h0Z"/>
      </g>
      <g>
        <g>
          <circle class="cls-4" cx="276.12" cy="178.46" r="89.4"/>
          <path d="m276.12,102.76c41.8,0,75.7,33.9,75.7,75.7s-33.9,75.7-75.7,75.7-75.7-33.9-75.7-75.7,33.9-75.7,75.7-75.7m0-27.3c-56.8,0-103,46.2-103,103s46.2,103,103,103,103-46.2,103-103-46.2-103-103-103h0Z"/>
        </g>
        <path d="m289.52,138.06h-27.3c-6.2,0-12,3.3-15.1,8.7l-13.6,23.6c-3.1,5.4-3.1,12.1,0,17.4l13.6,23.6c3.1,5.4,8.9,8.7,15.1,8.7h27.3c6.2,0,12-3.3,15.1-8.7l13.6-23.6c3.1-5.4,3.1-12.1,0-17.4l-13.6-23.6c-3.1-5.4-8.9-8.7-15.1-8.7Z"/>
      </g>
      <polygon class="cls-1" points="840.97 144.21 869.12 165.36 855.94 179.96 840.97 144.21"/>
      <path class="cls-1" d="m807.4,128.46l-2.74-11.46c-.26-1.07.41-2.15,1.48-2.41l17.17-4.11c1.07-.26,2.15.41,2.41,1.48l3.29,13.75-7.41,6.37-5.13-4.6-9.07.99Zm21.82,9.17v16.72c0,5.04-.79,9.85-2.39,14.41-1.59,4.56-3.82,8.71-6.7,12.46-2.88,3.74-6.31,6.97-10.3,9.67-3.58,2.42-7.48,4.25-11.71,5.48-.86.25-1.47,1.02-1.47,1.92v30.79c0,1.1-.9,2-2,2h-17.66c-1.1,0-2-.9-2-2v-30.79c0-.9-.61-1.67-1.47-1.92-4.23-1.23-8.15-3.06-11.75-5.48-4.01-2.7-7.46-5.92-10.34-9.67-2.88-3.74-5.11-7.9-6.7-12.46-1.59-4.56-2.39-9.36-2.39-14.41v-30.86c0-1.1.9-2,2-2h17.74c1.1,0,2,.9,2,2v30.86c0,3.01.57,5.85,1.7,8.52,1.14,2.67,2.69,5.01,4.66,6.99,1.97,1.99,4.28,3.55,6.93,4.7,2.65,1.15,5.46,1.72,8.44,1.72s5.79-.57,8.44-1.72c2.65-1.15,4.96-2.71,6.93-4.7,1.97-1.99,3.52-4.32,4.66-6.99,1.14-2.67,1.7-5.51,1.7-8.52v-19.08l8.52-2.03,4.16,7.74,8.98-3.35Z"/>
      <g>
        <path class="cls-3" d="m846.2,103.03l-10.63,27.58c-.27.71.08,1.51.79,1.78l33.01,12.73-11.92-11.33,3.31-13.67-12.77,1.11-1.8-18.21Z"/>
        <path class="cls-3" d="m875.37,111.95c-.14-.34,4.2-10.37,4.2-10.37.67-1.47,1.56-2.72,2.67-3.75,1.12-1.03,2.37-1.81,3.76-2.33,1.39-.52,2.84-.77,4.36-.73,1.52.04,3.01.39,4.49,1.05l10.6,4.79c4.37,1.97,8.84,2.99,13.42,3.05,4.58.06,8.95-.69,13.12-2.26,4.17-1.57,7.95-3.91,11.36-7,3.41-3.1,6.1-6.83,8.07-11.19,1.97-4.37,2.99-8.84,3.05-13.42.06-4.58-.69-8.95-2.26-13.12-1.57-4.17-3.89-7.95-6.97-11.35-3.07-3.4-6.79-6.08-11.16-8.06l-36.42-16.47c-.69-.31-1.51,0-1.82.69l-8.41,18.6c-.31.69,0,1.51.69,1.82l36.42,16.47c1.47.67,2.72,1.56,3.75,2.67,1.03,1.12,1.81,2.37,2.33,3.76.52,1.39.77,2.84.73,4.36-.04,1.52-.39,3.01-1.05,4.49-.67,1.47-1.56,2.74-2.69,3.79-1.13,1.06-2.39,1.85-3.77,2.37s-2.84.77-4.36.73c-1.52-.04-3.01-.39-4.49-1.05l-10.6-4.79c-4.37-1.97-8.83-3-13.4-3.09-4.57-.09-8.94.66-13.1,2.23-4.17,1.57-7.96,3.91-11.36,7-3.41,3.1-6.1,6.83-8.07,11.19l-1.56,3.45-1.56,17.88,20.03-1.41Z"/>
        <path class="cls-3" d="m876.9,119.63l-7.15,1.03.25,16.02,15.75,9.24,34.93,10.09c.73.21,1.49-.22,1.7-.95l5.52-19.66c.21-.73-.22-1.49-.95-1.7l-50.05-14.07Z"/>
      </g>
      <g>
        <polygon class="cls-3" points="829.04 105.96 801.15 85.48 813.67 70.33 829.04 105.96"/>
        <polygon class="cls-3" points="833.68 95.09 828.67 68.14 840.45 73.32 833.68 95.09"/>
      </g>
      <g>
        <path d="m721.91,287.94h-17.6s-.09,0-.14,0h-44.03c-.21,0-.42,0-.63,0h-20c-.31,0-.61.01-.92.02h-17.06c-.37,0-.75-.02-1.12-.02h-70c-.56,0-1.12.02-1.68.05l-163.22.05c-1.26-.06-2.52-.1-3.79-.1-9.8,0-19.2,1.9-27.9,5.7-8.5,3.7-16.1,8.8-22.5,15.2-6.3,6.4-11.4,13.9-15.1,22.4-3.8,8.7-5.7,18.1-5.7,27.9v62.8c0,16.5,13.5,30,30,30h381.4c16.5,0,30-13.5,30-30v-104c0-16.6-13.5-30-30-30Z"/>
        <path class="cls-1" d="m467.41,423.84h-17.6c-1.1,0-2-.9-2-2v-104c0-1.1.9-2,2-2h41.2c4,0,7.8.5,11.4,1.5,3.7,1,7.1,2.5,10.3,4.4,3.2,1.9,6.1,4.1,8.7,6.8,2.6,2.6,4.9,5.6,6.8,8.8,1.9,3.2,3.3,6.6,4.4,10.3,1,3.7,1.5,7.5,1.5,11.4s-.5,7.3-1.4,10.8c-.9,3.5-2.3,6.8-4,10-1.7,3.2-3.8,6.1-6.4,8.7-2.1,2.3-4.5,4.3-7,6-.8.5-1.1,1.6-.7,2.4l10.1,23.9c.6,1.3-.4,2.8-1.8,2.8h-18.6c-.8,0-1.5-.5-1.8-1.2l-8.4-19.3c-.3-.7-1.1-1.2-1.8-1.2l-20.9.1c-1.1,0-2,.9-2,2v17.6c0,1.3-.9,2.2-2,2.2h0Zm2-84.3v39.2c0,1.1.9,2,2,2h19.6c3,0,5.8-.6,8.4-1.7,2.6-1.1,4.9-2.7,6.8-4.6s3.5-4.2,4.6-6.9c1.1-2.6,1.7-5.4,1.7-8.4s-.6-5.8-1.7-8.4c-1.1-2.6-2.7-4.9-4.6-6.9-1.9-2-4.2-3.5-6.8-4.6-2.6-1.1-5.4-1.7-8.4-1.7h-19.6c-1.1,0-2,.9-2,2h0Z"/>
        <path class="cls-1" d="m721.91,423.84h-20c-.7,0-1.4-.4-1.7-1l-37.3-63.7c-1-1.8-3.7-1-3.7,1v61.7c0,1.1-.9,2-2,2h-17.7c-1.1,0-2-.9-2-2v-104c0-1.1.9-2,2-2h20c.7,0,1.4.4,1.7,1l37.3,63.8c1,1.8,3.7,1,3.7-1v-61.7c0-1.1.9-2,2-2h17.6c1.1,0,2,.9,2,2v104c.1,1-.8,1.9-1.9,1.9Z"/>
        <path class="cls-1" d="m422.91,423.84h-17.6c-1.1,0-2-.9-2-2v-17.6c0-1.1-.9-2-2-2h-39.2c-1.1,0-2,.9-2,2v17.6c0,1.1-.9,2-2,2h-17.6c-1.1,0-2-.9-2-2v-62.8c0-6,1.1-11.6,3.4-16.8,2.3-5.2,5.3-9.8,9.2-13.7,3.9-3.9,8.5-7,13.7-9.3,5.2-2.3,10.8-3.4,16.8-3.4s11.6,1.1,16.8,3.4c5.2,2.3,9.8,5.4,13.7,9.3,3.9,3.9,7,8.5,9.3,13.7,2.3,5.2,3.4,10.9,3.4,16.8v62.8c.1,1.1-.8,2-1.9,2h0Zm-21.6-43.1c1.1,0,2-.9,2-2v-19.6c0-3-.6-5.8-1.7-8.4-1.1-2.6-2.7-4.9-4.6-6.9s-4.2-3.5-6.9-4.6c-2.6-1.1-5.4-1.7-8.4-1.7s-5.8.6-8.4,1.7c-2.6,1.1-4.9,2.7-6.9,4.6-2,1.9-3.5,4.2-4.6,6.9-1.1,2.6-1.7,5.4-1.7,8.4v19.6c0,1.1.9,2,2,2h39.2Z"/>
        <g>
          <g>
            <path class="cls-2" d="m726.31,442.84c-7.9,0-15-4.1-18.9-10.9s-3.9-15,0-21.9l60-103.9c3.9-6.8,11-10.9,18.9-10.9s15,4.1,18.9,10.9l60,103.9c3.9,6.8,3.9,15,0,21.9-4,6.9-11,10.9-18.9,10.9h-120Z"/>
            <path d="m786.31,307.14c3.3,0,6.7,1.7,8.6,4.9l60,103.9c3.8,6.6-.9,14.8-8.6,14.8h-120c-7.6,0-12.3-8.2-8.5-14.8l60-103.9c1.9-3.2,5.2-4.9,8.5-4.9m.1-24c-12.1,0-23.3,6.5-29.3,16.9l-60,103.9c-6,10.4-6,23.4,0,33.9,6,10.4,17.3,16.9,29.3,16.9h120c12.1,0,23.3-6.5,29.3-16.9s6-23.4,0-33.9l-60-103.9c-6-10.4-17.3-16.9-29.3-16.9h0Z"/>
          </g>
          <path d="m781.31,351.04l-28.2,48.8c-2.2,3.8.6,8.6,5,8.6h56.3c4.4,0,7.2-4.8,5-8.6l-28.2-48.8c-2.2-3.8-7.7-3.8-9.9,0h0Z"/>
        </g>
        <path class="cls-1" d="m620.26,423.75h-69.78c-1.1,0-1.99-.88-1.99-1.99v-103.56c0-1.1.88-1.99,1.99-1.99h69.78c1.1,0,1.99.88,1.99,1.99v17.56c0,1.1-.88,1.99-1.99,1.99h-48.25c-1.1,0-1.99.88-1.99,1.99v17.56c0,1.1.88,1.99,1.99,1.99h31.36c1.1,0,1.99.88,1.99,1.99v17.56c0,1.1-.88,1.99-1.99,1.99h-31.36c-1.1,0-1.99.88-1.99,1.99v17.44c0,1.1.88,1.99,1.99,1.99h48.25c1.1,0,1.99.88,1.99,1.99v17.56c0,1.1-.88,1.99-1.99,1.99Z"/>
      </g>
    </g>
  </g>
</svg>