<svg width="256" height="256" viewBox="0 0 256 256" fill="none" xmlns="http://www.w3.org/2000/svg">
<g clip-path="url(#clip0_2099_332)">
<path fill-rule="evenodd" clip-rule="evenodd" d="M96.3217 159.678L256 0V256H-7.62939e-06L64.6433 191.357C74.6416 201.355 86.8643 208.845 100.312 213.215C113.76 217.584 128.051 218.709 142.017 216.497C155.982 214.285 169.226 208.799 180.666 200.488C192.105 192.177 201.415 181.276 207.834 168.678L167.917 148.339C165.786 152.521 163.008 156.349 159.678 159.678C155.518 163.838 150.58 167.138 145.144 169.39C139.709 171.641 133.883 172.8 128 172.8C122.117 172.8 116.291 171.641 110.856 169.39C105.42 167.138 100.482 163.838 96.3217 159.678Z" fill="black"/>
<path fill-rule="evenodd" clip-rule="evenodd" d="M128 38.4C177.485 38.4 217.6 78.5153 217.6 128C217.6 177.485 177.485 217.6 128 217.6C103.258 217.6 80.8577 207.571 64.6432 191.357C74.6416 201.355 86.8643 208.845 100.312 213.215C113.76 217.584 128.051 218.709 142.017 216.497C155.982 214.285 169.226 208.799 180.666 200.488C192.105 192.177 201.415 181.276 207.834 168.678L167.926 148.343C171.042 142.239 172.8 135.325 172.8 128C172.8 103.258 152.742 83.2 128 83.2C103.258 83.2 83.2 103.258 83.2 128C83.2 140.371 88.2145 151.571 96.3217 159.678L64.6432 191.357C48.4288 175.142 38.4 152.742 38.4 128C38.4 78.5153 78.5153 38.4 128 38.4Z" fill="black"/>
</g>
<rect x="3.84" y="3.84" width="248.32" height="248.32" rx="53.76" stroke="black" stroke-width="7.68"/>
<defs>
<clipPath id="clip0_2099_332">
<rect width="256" height="256" rx="57.6" fill="white"/>
</clipPath>
</defs>
</svg>
