<svg width="256" height="256" viewBox="0 0 256 256" fill="none" xmlns="http://www.w3.org/2000/svg">
<g clip-path="url(#clip0_2108_402)">
<path fill-rule="evenodd" clip-rule="evenodd" d="M110.856 169.39C105.42 167.138 100.482 163.838 96.3217 159.678L64.6432 191.357C74.6416 201.355 86.8643 208.845 100.312 213.215C113.76 217.584 128.051 218.709 142.017 216.497C155.982 214.285 169.226 208.799 180.666 200.488C192.105 192.177 201.415 181.276 207.834 168.678L167.917 148.339C165.786 152.521 163.008 156.349 159.678 159.678C155.518 163.838 150.58 167.138 145.144 169.39C139.709 171.641 133.883 172.8 128 172.8C122.117 172.8 116.291 171.641 110.856 169.39Z" fill="white"/>
<path fill-rule="evenodd" clip-rule="evenodd" d="M64.6433 191.357L-6.10352e-05 256L-1.62747e-05 0L256 4.47605e-05L191.357 64.6433C183.037 56.3231 173.159 49.7232 162.288 45.2204C151.418 40.7176 139.766 38.4 128 38.4C116.234 38.4 104.582 40.7176 93.7116 45.2204C82.8408 49.7233 72.9634 56.3231 64.6432 64.6433C56.3231 72.9634 49.7232 82.8408 45.2204 93.7116C40.7176 104.582 38.4 116.234 38.4 128C38.4 139.766 40.7176 151.418 45.2204 162.288C49.7232 173.159 56.3231 183.037 64.6433 191.357ZM96.3217 159.678L159.678 96.3216C151.571 88.2144 140.371 83.2 128 83.2C103.258 83.2 83.2 103.258 83.2 128C83.2 140.371 88.2144 151.571 96.3217 159.678Z" fill="white"/>
</g>
<rect x="3.84" y="3.84" width="248.32" height="248.32" rx="53.76" stroke="white" stroke-width="7.68"/>
<defs>
<clipPath id="clip0_2108_402">
<rect width="256" height="256" rx="57.6" fill="white"/>
</clipPath>
</defs>
</svg>
